<?xml version="1.0" encoding="UTF-8" standalone="no"?>
<!-- Created with Inkscape (http://www.inkscape.org/) -->

<svg
   xmlns:dc="http://purl.org/dc/elements/1.1/"
   xmlns:cc="http://creativecommons.org/ns#"
   xmlns:rdf="http://www.w3.org/1999/02/22-rdf-syntax-ns#"
   xmlns:svg="http://www.w3.org/2000/svg"
   xmlns="http://www.w3.org/2000/svg"
   xmlns:sodipodi="http://sodipodi.sourceforge.net/DTD/sodipodi-0.dtd"
   xmlns:inkscape="http://www.inkscape.org/namespaces/inkscape"
   width="108"
   height="108"
   viewBox="0 0 28.574999 28.575001"
   version="1.1"
   id="svg8"
   inkscape:version="0.92.4 (5da689c313, 2019-01-14)"
   sodipodi:docname="icon.svg">
  <defs
     id="defs2" />
  <sodipodi:namedview
     id="base"
     pagecolor="#ffffff"
     bordercolor="#666666"
     borderopacity="1.0"
     inkscape:pageopacity="0.0"
     inkscape:pageshadow="2"
     inkscape:zoom="1.75"
     inkscape:cx="214.63841"
     inkscape:cy="177.98941"
     inkscape:document-units="px"
     inkscape:current-layer="layer1"
     showgrid="false"
     units="px"
     inkscape:window-width="1600"
     inkscape:window-height="835"
     inkscape:window-x="0"
     inkscape:window-y="0"
     inkscape:window-maximized="1" />
  <metadata
     id="metadata5">
    <rdf:RDF>
      <cc:Work
         rdf:about="">
        <dc:format>image/svg+xml</dc:format>
        <dc:type
           rdf:resource="http://purl.org/dc/dcmitype/StillImage" />
        <dc:title></dc:title>
      </cc:Work>
    </rdf:RDF>
  </metadata>
  <g
     inkscape:label="Calque 1"
     inkscape:groupmode="layer"
     id="layer1"
     transform="translate(0,-268.42499)">
    <g
       id="g539"
       transform="matrix(0.02583822,0,0,0.02583822,7.6729167,276.0979)"
       style="image-rendering:auto">
      <g
         id="Others" />
      <g
         id="Design" />
      <g
         id="SEO_x2F__Web" />
      <g
         id="Finance__x2F__Money" />
      <g
         id="E-Commerce__x2F__Shopping" />
      <g
         id="Strategy">
        <g
           id="chess">
          <radialGradient
             gradientUnits="userSpaceOnUse"
             gradientTransform="matrix(1,0,0,-1,0,514)"
             r="221.69501"
             cy="332.99899"
             cx="256"
             id="SVGID_1_">
            <stop
               id="stop254"
               style="stop-color:#9C56B8"
               offset="0" />
            <stop
               id="stop256"
               style="stop-color:#8F3FAF"
               offset="1" />
          </radialGradient>
          <path
             id="path259"
             d="M 256,0 C 181.317,0 114.104,31.98 67.308,82.993 60.636,90.266 69.804,113.992 64,122 55.556,133.652 32.644,129.977 26.23,142.992 9.435,177.075 0,215.436 0,256 c 0,37.806 8.195,73.697 22.906,105.996 l 466.186,0.006 C 503.804,329.702 512,293.808 512,256 512,242.392 510.938,229.032 508.894,215.999 507.492,207.067 482.3,198.6 480,190 476.938,178.552 496.431,167.109 491.881,156.352 453.019,64.471 362.038,0 256,0 Z"
             style="fill:url(#SVGID_1_)"
             inkscape:connector-curvature="0" />
          <path
             id="path261"
             d="m 67.315,83 c -8.609,9.385 -16.535,19.407 -23.682,30 -6.449,9.558 -12.256,19.583 -17.389,30 H 79 V 113 83 Z"
             style="fill:#33495f"
             inkscape:connector-curvature="0" />
          <path
             id="path263"
             d="M 79,113 H 43.634 c -6.449,9.558 -12.256,19.583 -17.389,30 H 79 Z"
             style="fill:#2b3e51"
             inkscape:connector-curvature="0" />
          <path
             id="path265"
             d="m 379.823,171.75 c 25.413,0 46.168,20.675 46.168,46.088 0,13.558 -5.892,26.369 -16.236,35.148 -2.444,2.075 -5.412,3.089 -8.386,3.089 -3.685,0 -7.336,-1.559 -9.908,-4.588 -4.646,-5.474 -3.97,-13.677 1.504,-18.324 4.513,-3.831 7.104,-9.417 7.104,-15.326 0,-11.077 -9.171,-20.088 -20.248,-20.088 -0.224,0 0.178,0.026 -0.822,0.034 v -26.017 c 1.001,-0.002 0.602,-0.016 0.824,-0.016 z"
             style="fill:#e5bf88"
             inkscape:connector-curvature="0" />
          <g
             id="g313">
            <path
               id="path267"
               d="M 489.084,362 H 22.916 C 63.222,450.485 152.424,512 256,512 359.576,512 448.778,450.485 489.084,362 Z"
               style="fill:#ecf0f1"
               inkscape:connector-curvature="0" />
            <g
               id="g311">
              <path
                 id="path269"
                 d="m 22.916,362 c 4.734,10.393 10.15,20.407 16.178,30 H 56 v -30 z"
                 style="fill:#2b3e51"
                 inkscape:connector-curvature="0" />
              <path
                 id="path271"
                 d="m 56,392 v 23.788 c 1.678,2.098 3.388,4.169 5.13,6.212 H 106 v -30 z"
                 style="fill:#2b3e51"
                 inkscape:connector-curvature="0" />
              <path
                 id="path273"
                 d="M 106,463.453 V 452 H 91.336 c 4.745,3.99 9.635,7.811 14.664,11.453 z"
                 style="fill:#2b3e51"
                 inkscape:connector-curvature="0" />
              <rect
                 id="rect275"
                 height="30"
                 width="50"
                 style="fill:#2b3e51"
                 y="362"
                 x="106" />
              <rect
                 id="rect277"
                 height="30"
                 width="50"
                 style="fill:#2b3e51"
                 y="422"
                 x="106" />
              <path
                 id="path279"
                 d="M 156,491.728 V 482 h -20.323 c 6.609,3.526 13.385,6.78 20.323,9.728 z"
                 style="fill:#2b3e51"
                 inkscape:connector-curvature="0" />
              <rect
                 id="rect281"
                 height="30"
                 width="50"
                 style="fill:#2b3e51"
                 y="392"
                 x="156" />
              <rect
                 id="rect283"
                 height="30"
                 width="50"
                 style="fill:#2b3e51"
                 y="452"
                 x="156" />
              <rect
                 id="rect285"
                 height="30"
                 width="50"
                 style="fill:#2b3e51"
                 y="362"
                 x="206" />
              <rect
                 id="rect287"
                 height="30"
                 width="50"
                 style="fill:#2b3e51"
                 y="422"
                 x="206" />
              <path
                 id="path289"
                 d="m 206,507.104 c 16.172,3.203 32.888,4.896 50,4.896 v -30 h -50 z"
                 style="fill:#2b3e51"
                 inkscape:connector-curvature="0" />
              <rect
                 id="rect291"
                 height="30"
                 width="50"
                 style="fill:#2b3e51"
                 y="392"
                 x="256" />
              <rect
                 id="rect293"
                 height="30"
                 width="50"
                 style="fill:#2b3e51"
                 y="452"
                 x="256" />
              <rect
                 id="rect295"
                 height="30"
                 width="50"
                 style="fill:#2b3e51"
                 y="362"
                 x="306" />
              <rect
                 id="rect297"
                 height="30"
                 width="50"
                 style="fill:#2b3e51"
                 y="422"
                 x="306" />
              <path
                 id="path299"
                 d="m 306,507.104 c 17.361,-3.438 34.094,-8.621 50,-15.376 V 482 h -50 z"
                 style="fill:#2b3e51"
                 inkscape:connector-curvature="0" />
              <rect
                 id="rect301"
                 height="30"
                 width="50"
                 style="fill:#2b3e51"
                 y="392"
                 x="356" />
              <path
                 id="path303"
                 d="m 356,482 h 20.323 C 386.659,476.485 396.57,470.283 406,463.453 V 452 h -50 z"
                 style="fill:#2b3e51"
                 inkscape:connector-curvature="0" />
              <rect
                 id="rect305"
                 height="30"
                 width="50"
                 style="fill:#2b3e51"
                 y="362"
                 x="406" />
              <path
                 id="path307"
                 d="m 420.664,452 c 10.879,-9.149 20.984,-19.185 30.206,-30 H 406 v 30 z"
                 style="fill:#2b3e51"
                 inkscape:connector-curvature="0" />
              <path
                 id="path309"
                 d="M 472.906,392 H 456 v 23.788 c 6.071,-7.589 11.717,-15.529 16.906,-23.788 z"
                 style="fill:#2b3e51"
                 inkscape:connector-curvature="0" />
            </g>
          </g>
          <path
             id="path315"
             d="m 97.996,348 c 0.887,0 2.004,-0.301 2.004,-1.188 V 346.45 C 100,345.563 98.883,345 97.996,345 H 96 v -2 h -2.381 c 0,0 -6.024,-8 -7.419,-27 h 1.288 c 0.769,0 1.513,-0.374 1.513,-1.142 v -0.076 c 0,-0.769 -0.744,-1.782 -1.513,-1.782 h -1.46 c -0.032,0 -0.058,-1 -0.076,-2 h 1.536 c 0.769,0 1.513,-0.377 1.513,-1.146 v -0.076 c 0,-0.769 -0.744,-1.778 -1.513,-1.778 h -0.381 c 1.385,-1 2.23,-3.454 2.23,-5.722 0,-4.968 -4.027,-8.897 -8.994,-8.897 -4.967,0 -8.994,3.882 -8.994,8.849 0,2.268 0.846,4.77 2.23,5.77 H 72.4 c -0.769,0 -1.4,1.009 -1.4,1.778 v 0.076 c 0,0.769 0.631,1.146 1.4,1.146 h 2.334 c -0.018,1 -0.044,2 -0.076,2 H 72.4 c -0.769,0 -1.4,1.013 -1.4,1.782 v 0.076 c 0,0.769 0.631,1.142 1.4,1.142 h 2.086 c -1.396,19 -7.419,27 -7.419,27 H 65 v 2 H 62.606 C 61.719,345 61,345.562 61,346.45 v 0.362 c 0,0.887 0.719,1.188 1.606,1.188 H 65 v 4 H 64.212 C 62.438,352 61,353.43 61,355.204 v 0.01 c 0,1.774 1.438,2.786 3.212,2.786 h -0.714 l 5.424,4 H 91.62 l 5.496,-4 H 96.39 c 1.774,0 3.61,-1.012 3.61,-2.786 v -0.01 C 100,353.43 98.164,352 96.39,352 H 96 v -4 z"
             style="opacity:0.8;fill:#ecf0f1;enable-background:new"
             inkscape:connector-curvature="0" />
          <path
             id="path317"
             d="m 193.563,352 c 0.637,0 1.437,-0.268 1.437,-0.905 v -0.26 C 195,350.198 194.2,350 193.563,350 H 192 v -2 h -1.58 c 0,0 -4.325,-5 -5.327,-19 h 0.924 c 0.552,0 0.982,-0.296 0.982,-0.848 v -0.054 c 0,-0.552 -0.43,-1.098 -0.982,-1.098 h -1.048 c -0.023,0 -0.042,-1 -0.055,-2 h 1.103 c 0.552,0 0.982,0.111 0.982,-0.441 v -0.055 c 0,-0.552 -0.43,-1.504 -0.982,-1.504 h -0.273 c 0.994,0 1.602,-2.366 1.602,-3.994 0,-3.566 -2.892,-6.332 -6.458,-6.332 -3.566,0 -6.458,2.702 -6.458,6.268 0,1.628 0.607,4.058 1.602,4.058 h -0.847 c -0.552,0 -1.185,0.953 -1.185,1.504 v 0.055 c 0,0.552 0.633,0.441 1.185,0.441 h 1.676 c -0.013,1 -0.032,2 -0.055,2 h -1.622 c -0.552,0 -1.185,0.545 -1.185,1.098 v 0.054 c 0,0.552 0.633,0.848 1.185,0.848 h 1.498 c -1.002,14 -5.327,19 -5.327,19 H 170 v 2 h -1.847 c -0.637,0 -1.153,0.198 -1.153,0.835 v 0.26 c 0,0.637 0.516,0.905 1.153,0.905 H 170 v 3 h -0.694 c -1.274,0 -2.306,0.847 -2.306,2.121 v 0.007 c 0,1.274 1.032,1.873 2.306,1.873 h -0.513 l 3.895,3 h 16.297 l 3.946,-3 h -0.522 c 1.274,0 2.59,-0.599 2.59,-1.873 v -0.007 c 0,-1.274 -1.316,-2.121 -2.59,-2.121 H 192 v -3 z"
             style="opacity:0.5;fill:#33495f;enable-background:new"
             inkscape:connector-curvature="0" />
          <path
             id="path319"
             d="m 293.563,352 c 0.637,0 1.437,-0.268 1.437,-0.905 v -0.26 C 295,350.198 294.2,350 293.563,350 H 292 v -2 h -1.58 c 0,0 -4.325,-5 -5.327,-19 h 0.924 c 0.552,0 0.982,-0.296 0.982,-0.848 v -0.054 c 0,-0.552 -0.43,-1.098 -0.982,-1.098 h -1.048 c -0.023,0 -0.042,-1 -0.055,-2 h 1.103 c 0.552,0 0.982,0.111 0.982,-0.441 v -0.055 c 0,-0.552 -0.43,-1.504 -0.982,-1.504 h -0.273 c 0.994,0 1.602,-2.366 1.602,-3.994 0,-3.566 -2.892,-6.332 -6.458,-6.332 -3.566,0 -6.458,2.702 -6.458,6.268 0,1.628 0.607,4.058 1.602,4.058 h -0.847 c -0.552,0 -1.185,0.953 -1.185,1.504 v 0.055 c 0,0.552 0.633,0.441 1.185,0.441 h 1.676 c -0.013,1 -0.032,2 -0.055,2 h -1.622 c -0.552,0 -1.185,0.545 -1.185,1.098 v 0.054 c 0,0.552 0.633,0.848 1.185,0.848 h 1.498 c -1.002,14 -5.327,19 -5.327,19 H 270 v 2 h -1.847 c -0.637,0 -1.153,0.198 -1.153,0.835 v 0.26 c 0,0.637 0.516,0.905 1.153,0.905 H 270 v 3 h -0.694 c -1.274,0 -2.306,0.847 -2.306,2.121 v 0.007 c 0,1.274 1.032,1.873 2.306,1.873 h -0.513 l 3.895,3 h 16.297 l 3.946,-3 h -0.522 c 1.274,0 2.59,-0.599 2.59,-1.873 v -0.007 c 0,-1.274 -1.316,-2.121 -2.59,-2.121 H 292 v -3 z"
             style="opacity:0.8;fill:#ecf0f1;enable-background:new"
             inkscape:connector-curvature="0" />
          <g
             id="g337">
            <polygon
               id="polygon321"
               points="246.569,362 254.257,357 207.229,357 214.817,362 "
               style="fill:#bdc3c7" />
            <rect
               id="rect323"
               height="13"
               width="44"
               style="fill:#bdc3c7"
               y="335"
               x="209" />
            <path
               id="path325"
               d="m 258,352.507 c 0,2.481 -2.012,4.493 -4.494,4.493 h -45.013 c -2.482,0 -4.494,-2.012 -4.494,-4.493 v -0.014 c 0,-2.481 2.012,-4.493 4.494,-4.493 h 45.013 c 2.482,0 4.494,2.012 4.494,4.493 z"
               style="fill:#ecf0f1"
               inkscape:connector-curvature="0" />
            <path
               id="path327"
               d="m 258,340.753 c 0,1.241 -1.006,2.247 -2.247,2.247 h -49.507 c -1.241,0 -2.247,-1.006 -2.247,-2.247 v -0.507 c 0,-1.241 1.006,-2.247 2.247,-2.247 h 49.507 c 1.241,0 2.247,1.006 2.247,2.247 z"
               style="fill:#ecf0f1"
               inkscape:connector-curvature="0" />
            <path
               id="path329"
               d="m 238.581,287 h -15.577 c 0,34 -10.784,48 -10.784,48 h 37.144 c 0.001,0 -10.783,-14 -10.783,-48 z"
               style="fill:#ecf0f1"
               inkscape:connector-curvature="0" />
            <circle
               id="circle331"
               r="12.581"
               cy="278.72501"
               cx="230.793"
               style="fill:#ecf0f1" />
            <path
               id="path333"
               d="m 243,289.053 c 0,1.075 -0.872,1.947 -1.947,1.947 h -21.105 c -1.075,0 -1.947,-0.872 -1.947,-1.947 v -0.106 c 0,-1.075 0.872,-1.947 1.947,-1.947 h 21.105 c 1.075,0 1.947,0.872 1.947,1.947 z"
               style="fill:#bdc3c7"
               inkscape:connector-curvature="0" />
            <path
               id="path335"
               d="m 243,296.053 c 0,1.076 -0.872,1.947 -1.947,1.947 h -21.105 c -1.075,0 -1.947,-0.872 -1.947,-1.947 v -0.105 c 0,-1.076 0.872,-1.947 1.947,-1.947 h 21.105 c 1.075,0 1.947,0.872 1.947,1.947 z"
               style="fill:#bdc3c7"
               inkscape:connector-curvature="0" />
          </g>
          <g
             id="g361">
            <path
               id="path339"
               d="m 389.09,264 h -15.576 c 0,34 -10.784,60 -10.784,60 h 37.145 c -10e-4,0 -10.785,-26 -10.785,-60 z"
               style="fill:#33495f"
               inkscape:connector-curvature="0" />
            <polygon
               id="polygon341"
               points="397.078,351 404.767,346 357.737,346 365.326,351 "
               style="fill:#2b3e51" />
            <rect
               id="rect343"
               height="13"
               width="44"
               style="fill:#2b3e51"
               y="324"
               x="359" />
            <path
               id="path345"
               d="m 408,341.507 c 0,2.481 -2.012,4.493 -4.493,4.493 H 358.493 C 356.012,346 354,343.988 354,341.507 v -0.014 c 0,-2.481 2.012,-4.493 4.493,-4.493 h 45.014 c 2.481,0 4.493,2.012 4.493,4.493 z"
               style="fill:#33495f"
               inkscape:connector-curvature="0" />
            <path
               id="path347"
               d="m 408,329.753 c 0,1.241 -1.006,2.247 -2.247,2.247 h -49.507 c -1.241,0 -2.247,-1.006 -2.247,-2.247 v -0.507 c 0,-1.241 1.006,-2.247 2.247,-2.247 h 49.507 c 1.241,0 2.247,1.006 2.247,2.247 z"
               style="fill:#33495f"
               inkscape:connector-curvature="0" />
            <circle
               id="circle349"
               r="12.581"
               cy="230.58099"
               cx="381.302"
               style="fill:#33495f" />
            <polygon
               id="polygon351"
               points="370.518,264 392.085,264 398.077,243 364.527,243 "
               style="fill:#33495f" />
            <path
               id="path353"
               d="m 402,242.053 c 0,1.076 -0.872,1.947 -1.947,1.947 h -36.105 c -1.075,0 -1.947,-0.872 -1.947,-1.947 v -0.105 c 0,-1.076 0.872,-1.947 1.947,-1.947 h 36.105 c 1.075,0 1.947,0.872 1.947,1.947 z"
               style="fill:#2b3e51"
               inkscape:connector-curvature="0" />
            <path
               id="path355"
               d="m 394,264.053 c 0,1.075 -0.872,1.947 -1.947,1.947 h -21.105 c -1.075,0 -1.947,-0.872 -1.947,-1.947 v -0.106 c 0,-1.075 0.872,-1.947 1.947,-1.947 h 21.105 c 1.075,0 1.947,0.872 1.947,1.947 z"
               style="fill:#2b3e51"
               inkscape:connector-curvature="0" />
            <path
               id="path357"
               d="m 394,278.053 c 0,1.075 -0.872,1.947 -1.947,1.947 h -21.105 c -1.075,0 -1.947,-0.872 -1.947,-1.947 v -0.106 c 0,-1.075 0.872,-1.947 1.947,-1.947 h 21.105 c 1.075,0 1.947,0.872 1.947,1.947 z"
               style="fill:#2b3e51"
               inkscape:connector-curvature="0" />
            <path
               id="path359"
               d="m 394,285.053 c 0,1.076 -0.872,1.947 -1.947,1.947 h -21.105 c -1.075,0 -1.947,-0.872 -1.947,-1.947 v -0.105 c 0,-1.076 0.872,-1.947 1.947,-1.947 h 21.105 c 1.075,0 1.947,0.872 1.947,1.947 z"
               style="fill:#2b3e51"
               inkscape:connector-curvature="0" />
          </g>
          <path
             id="path363"
             d="m 448.996,348 c 0.887,0 2.004,-0.301 2.004,-1.188 v -0.362 c 0,-0.887 -1.117,-1.45 -2.004,-1.45 H 447 v -2 h -2.381 c 0,0 -6.024,-8 -7.419,-27 h 1.288 c 0.769,0 1.513,-0.374 1.513,-1.142 v -0.076 c 0,-0.769 -0.744,-1.782 -1.513,-1.782 h -1.46 c -0.032,0 -0.058,-1 -0.076,-2 h 1.536 c 0.769,0 1.513,-0.377 1.513,-1.146 v -0.076 c 0,-0.769 -0.744,-1.778 -1.513,-1.778 h -0.381 c 1.385,-1 2.23,-3.454 2.23,-5.722 0,-4.968 -4.027,-8.897 -8.994,-8.897 -4.967,0 -8.994,3.882 -8.994,8.849 0,2.268 0.846,4.77 2.23,5.77 h -1.18 c -0.769,0 -1.4,1.009 -1.4,1.778 v 0.076 c 0,0.769 0.631,1.146 1.4,1.146 h 2.334 c -0.018,1 -0.044,2 -0.076,2 H 423.4 c -0.769,0 -1.4,1.013 -1.4,1.782 v 0.076 c 0,0.769 0.631,1.142 1.4,1.142 h 2.086 c -1.396,19 -7.419,27 -7.419,27 H 416 v 2 h -2.394 c -0.887,0 -1.606,0.562 -1.606,1.45 v 0.362 c 0,0.887 0.719,1.188 1.606,1.188 H 416 v 4 h -0.788 c -1.774,0 -3.212,1.43 -3.212,3.204 v 0.01 c 0,1.774 1.438,2.786 3.212,2.786 h -0.714 l 5.424,4 h 22.698 l 5.496,-4 h -0.727 c 1.774,0 3.61,-1.012 3.61,-2.786 v -0.01 c 0,-1.774 -1.836,-3.204 -3.61,-3.204 H 447 v -4 z"
             style="opacity:0.8;fill:#ecf0f1;enable-background:new"
             inkscape:connector-curvature="0" />
          <path
             id="path365"
             d="m 346.039,331.214 c 0,0 1.758,-7.212 -0.772,-17.967 -1.334,-5.67 -6.363,-7.868 -10.821,-8.681 l -0.363,-2.346 -1.265,-0.633 -0.657,2.667 c -2.967,-0.279 -5.248,-0.031 -5.248,-0.031 l 0.738,4.639 0.056,0.108 c -0.035,0.01 -0.056,0.016 -0.056,0.016 l -8.698,9.063 2.056,6.657 6.642,-5.032 c 6.009,8.856 -8.065,19.748 -8.065,19.748 L 319.323,348 H 318 v 1 h -1.814 c -0.655,0 -1.186,0.531 -1.186,1.186 v 0.628 c 0,0.655 0.531,1.186 1.186,1.186 H 318 v 3 h -0.628 c -1.31,0 -2.372,1.062 -2.372,2.372 v 0.256 c 0,1.31 1.062,2.372 2.372,2.372 h 0.756 l 2.671,2 h 16.764 l 2.706,-2 h 1.36 c 1.31,0 2.372,-1.062 2.372,-2.372 v -0.256 c 0,-1.31 -1.062,-2.372 -2.372,-2.372 H 341 v -3 h 1.814 c 0.655,0 1.186,-0.531 1.186,-1.186 v -0.628 C 344,349.531 343.469,349 342.814,349 H 341 v -1 h -2.594 c 1.672,-5.933 2.731,-10.978 3.312,-15.277 z"
             style="opacity:0.5;fill:#33495f;enable-background:new"
             inkscape:connector-curvature="0" />
          <path
             id="path367"
             d="m 148.338,98.75 c -25.413,0 -46.088,20.675 -46.088,46.088 0,13.558 5.932,26.369 16.276,35.148 2.444,2.075 5.433,3.089 8.406,3.089 3.685,0 7.346,-1.559 9.917,-4.588 4.646,-5.474 3.975,-13.677 -1.499,-18.324 -4.513,-3.831 -7.101,-9.417 -7.101,-15.326 0,-11.077 9.011,-20.088 20.088,-20.088 0.224,0 0.44,0.026 0.662,0.034 V 98.767 c -0.22,-0.003 -0.439,-0.017 -0.661,-0.017 z"
             style="fill:#e5bf88"
             inkscape:connector-curvature="0" />
          <g
             id="g385">
            <polygon
               id="polygon369"
               points="155.736,265 163.424,260 116.395,260 123.983,265 "
               style="fill:#bdc3c7" />
            <path
               id="path371"
               d="m 136.964,164.352 -1.398,-8.787 c 0,0 29.97,-3.276 34.763,17.093 4.792,20.37 1.462,34.031 1.462,34.031 l -10.864,3.794 z"
               style="fill:#bdc3c7"
               inkscape:connector-curvature="0" />
            <rect
               id="rect373"
               height="13"
               width="44"
               style="fill:#bdc3c7"
               y="238"
               x="118" />
            <path
               id="path375"
               d="m 167,255.507 c 0,2.481 -2.012,4.493 -4.493,4.493 H 117.493 C 115.012,260 113,257.988 113,255.507 v -0.014 c 0,-2.481 2.012,-4.493 4.493,-4.493 h 45.014 c 2.481,0 4.493,2.012 4.493,4.493 z"
               style="fill:#ecf0f1"
               inkscape:connector-curvature="0" />
            <path
               id="path377"
               d="m 167,243.753 c 0,1.241 -1.006,2.247 -2.247,2.247 h -49.507 c -1.241,0 -2.247,-1.006 -2.247,-2.247 v -0.507 c 0,-1.241 1.006,-2.247 2.247,-2.247 h 49.507 c 1.241,0 2.247,1.006 2.247,2.247 z"
               style="fill:#ecf0f1"
               inkscape:connector-curvature="0" />
            <path
               id="path379"
               d="m 121.188,238 0.499,-16.006 c 0,0 26.66,-20.509 15.277,-37.284 l -12.581,9.591 -3.894,-12.579 16.475,-17.393 c 0,0 44.933,-13.33 20.37,73.67 z"
               style="fill:#ecf0f1"
               inkscape:connector-curvature="0" />
            <polygon
               id="polygon381"
               points="149.146,151.771 151.342,165.949 143.354,164.352 146.75,150.572 "
               style="fill:#ecf0f1" />
            <polygon
               id="polygon383"
               points="147,156.563 147,161.955 148.598,163.561 "
               style="fill:#bdc3c7" />
          </g>
          <path
             id="path387"
             d="M 264.059,125.345 C 252.61,101.279 231.29,86.696 202.401,83.173 c -4.91,-0.599 -9.635,-0.817 -14.001,-0.804 10.607,-4.085 24.579,-6.704 36.493,0.328 6.183,3.648 14.154,1.595 17.803,-4.588 3.649,-6.183 1.595,-14.154 -4.588,-17.803 -25.015,-14.762 -52.195,-6.058 -68.025,1.745 -1.74,0.429 -3.923,1.555 -6.658,3.567 h -0.001 c -3.908,2.271 -6.348,4.02 -6.837,4.377 C 133.411,83.014 99,87 99,87 c 0,0 -7.5,38 0,50 7.5,12 10,8.5 10,8.5 0,0 -5.7,-14.249 13.001,-27.698 L 149,124.784 c 10.769,0.354 19.426,9.201 19.426,20.054 0,5.691 -2.311,10.947 -6.506,14.801 -5.288,4.857 -5.637,13.081 -0.78,18.368 4.857,5.288 13.081,5.638 18.368,0.78 9.481,-8.708 14.918,-21.083 14.918,-33.95 0,-10.576 -3.591,-20.32 -9.604,-28.104 1.043,0.513 2.098,1.066 3.159,1.663 15.133,8.521 23.91,21.777 26.088,39.399 0.617,4.992 3.986,8.971 8.398,10.604 1.886,0.698 3.964,0.967 6.098,0.704 7.125,-0.881 12.188,-7.371 11.308,-14.497 -1.637,-13.249 -5.98,-25.048 -12.83,-35.102 5.713,4.393 10.236,10.071 13.537,17.009 3.084,6.483 10.841,9.239 17.324,6.154 6.483,-3.085 9.239,-10.839 6.155,-17.322 z"
             style="fill:#e5bf88"
             inkscape:connector-curvature="0" />
          <rect
             id="rect389"
             height="55"
             width="20"
             style="fill:#ecf0f1"
             y="85"
             x="79" />
          <rect
             id="rect391"
             height="27"
             width="20"
             style="fill:#bdc3c7"
             y="113"
             x="79" />
          <path
             id="path393"
             d="m 264.264,198.345 c 11.449,-24.066 32.769,-38.649 61.658,-42.172 4.91,-0.599 9.635,-0.817 14.001,-0.804 -10.607,-4.085 -24.579,-6.704 -36.493,0.328 -6.183,3.648 -14.154,1.595 -17.803,-4.588 -3.649,-6.183 -1.595,-14.154 4.588,-17.803 25.015,-14.762 52.195,-6.058 68.025,1.745 1.74,0.429 3.923,1.555 6.658,3.567 h 10e-4 c 3.908,2.271 6.348,4.02 6.837,4.377 23.176,13.019 57.586,17.005 57.586,17.005 0,0 7.5,38 0,50 -7.5,12 -10.161,8.5 -10.161,8.5 0,0 -6.827,-14.249 -25.827,-27.698 L 379,197.784 c -10,0.354 -19.265,9.201 -19.265,20.054 0,5.691 2.391,10.947 6.587,14.801 5.288,4.857 5.677,13.081 0.821,18.368 -4.857,5.288 -13.061,5.638 -18.348,0.78 -9.481,-8.708 -14.909,-21.083 -14.909,-33.95 0,-10.576 3.596,-20.32 9.609,-28.104 -1.043,0.513 -2.096,1.066 -3.157,1.663 -15.133,8.521 -23.909,21.777 -26.086,39.399 -0.617,4.992 -3.985,8.971 -8.398,10.604 -1.886,0.698 -3.964,0.967 -6.098,0.704 -7.125,-0.881 -12.188,-7.371 -11.307,-14.497 1.637,-13.249 5.98,-25.048 12.83,-35.102 -5.713,4.393 -10.236,10.071 -13.537,17.009 -3.084,6.483 -10.841,9.239 -17.324,6.154 -6.483,-3.085 -9.239,-10.839 -6.154,-17.322 z"
             style="fill:#e5bf88"
             inkscape:connector-curvature="0" />
          <rect
             id="rect395"
             height="55"
             width="20"
             style="fill:#ecf0f1"
             y="158"
             x="429" />
          <rect
             id="rect397"
             height="27"
             width="20"
             style="fill:#bdc3c7"
             y="186"
             x="429" />
          <path
             id="path399"
             d="m 508.882,216 c -1.603,-10.212 -3.799,-20.227 -6.571,-30 -2.916,-10.278 -6.46,-20.292 -10.583,-30 H 449 v 30 0 30 z"
             style="fill:#33495f"
             inkscape:connector-curvature="0" />
          <path
             id="path401"
             d="m 449.322,186 v 30 h 59.56 c -1.603,-10.212 -3.799,-20.227 -6.571,-30 z"
             style="fill:#2b3e51"
             inkscape:connector-curvature="0" />
        </g>
      </g>
      <g
         id="g405" />
      <g
         id="g407" />
      <g
         id="g409" />
      <g
         id="g411" />
      <g
         id="g413" />
      <g
         id="g415" />
      <g
         id="g417" />
      <g
         id="g419" />
      <g
         id="g421" />
      <g
         id="g423" />
      <g
         id="g425" />
      <g
         id="g427" />
      <g
         id="g429" />
      <g
         id="g431" />
      <g
         id="g433" />
    </g>
  </g>
</svg>
